<svg xmlns="http://www.w3.org/2000/svg" version="1.1" xmlns:xlink="http://www.w3.org/1999/xlink" xmlns:svgjs="http://svgjs.dev/svgjs" width="1000" height="750" viewBox="0 0 1000 750"><rect width="1000" height="750" fill="#ff851b"></rect><g transform="matrix(0.834,0,0,0.834,82.49454545454546,115.4193570850203)"><svg viewBox="0 0 396 247" data-background-color="#ff851b" preserveAspectRatio="xMidYMid meet" height="623" width="1000" xmlns="http://www.w3.org/2000/svg" xmlns:xlink="http://www.w3.org/1999/xlink"><g id="tight-bounds" transform="matrix(1,0,0,1,0.2400000000000091,-0.09999999999999432)"><svg viewBox="0 0 395.52 247.2" height="247.2" width="395.52"><g><svg></svg></g><g><svg viewBox="0 0 395.52 247.2" height="247.2" width="395.52"><g transform="matrix(1,0,0,1,75.54432,98.82747867490174)"><svg viewBox="0 0 244.43135999999998 49.545042650196514" height="49.545042650196514" width="244.43135999999998"><g><svg viewBox="0 0 244.43135999999998 49.545042650196514" height="49.545042650196514" width="244.43135999999998"><g><svg viewBox="0 0 244.43135999999998 49.545042650196514" height="49.545042650196514" width="244.43135999999998"><g><svg viewBox="0 0 244.43135999999998 49.545042650196514" height="49.545042650196514" width="244.43135999999998"><g id="textblocktransform"><svg viewBox="0 0 244.43135999999998 49.545042650196514" height="49.545042650196514" width="244.43135999999998" id="textblock"><g><svg viewBox="0 0 244.43135999999998 49.545042650196514" height="49.545042650196514" width="244.43135999999998"><g transform="matrix(1,0,0,1,0,0)"><svg width="244.43135999999998" viewBox="2.200000047683716 -35.5 178.08999633789062 36.099998474121094" height="49.545042650196514" data-palette-color="#001f3f"><path d="M16.2 0.6L16.2 0.6Q13.05 0.6 10.48-0.35 7.9-1.3 6.08-3.4 4.25-5.5 3.23-8.9 2.2-12.3 2.2-17.2L2.2-17.2Q2.2-22.1 3.23-25.58 4.25-29.05 6.08-31.25 7.9-33.45 10.48-34.48 13.05-35.5 16.2-35.5L16.2-35.5Q20.9-35.5 23.63-33.48 26.35-31.45 28.1-27.35L28.1-27.35 21.9-24.15Q21.6-25.25 21.23-26.2 20.85-27.15 20.2-27.8 19.55-28.45 18.57-28.83 17.6-29.2 16.2-29.2L16.2-29.2Q13.2-29.2 11.5-27.4 9.8-25.6 9.8-22L9.8-22 9.8-12.9Q9.8-9.3 11.5-7.5 13.2-5.7 16.2-5.7L16.2-5.7Q17.6-5.7 18.63-6.13 19.65-6.55 20.35-7.28 21.05-8 21.5-8.97 21.95-9.95 22.3-11.1L22.3-11.1 28.2-7.7Q27.3-5.75 26.2-4.2 25.1-2.65 23.68-1.58 22.25-0.5 20.4 0.05 18.55 0.6 16.2 0.6ZM45.15 0.6L45.15 0.6Q42 0.6 39.45-0.38 36.9-1.35 35.1-3.53 33.3-5.7 32.3-9.13 31.3-12.55 31.3-17.45L31.3-17.45Q31.3-22.35 32.3-25.78 33.3-29.2 35.1-31.38 36.9-33.55 39.45-34.52 42-35.5 45.15-35.5L45.15-35.5Q48.3-35.5 50.85-34.52 53.4-33.55 55.2-31.38 57-29.2 58-25.78 59-22.35 59-17.45L59-17.45Q59-12.55 58-9.13 57-5.7 55.2-3.53 53.4-1.35 50.85-0.38 48.3 0.6 45.15 0.6ZM45.15-5.7L45.15-5.7Q48.15-5.7 49.77-7.5 51.4-9.3 51.4-12.9L51.4-12.9 51.4-22Q51.4-25.6 49.77-27.4 48.15-29.2 45.15-29.2L45.15-29.2Q42.15-29.2 40.52-27.4 38.9-25.6 38.9-22L38.9-22 38.9-12.9Q38.9-9.3 40.52-7.5 42.15-5.7 45.15-5.7ZM71.75-13.2L71.75 0 64.6 0 64.6-34.9 79.7-34.9Q84.4-34.9 86.85-31.95 89.3-29 89.3-24.05L89.3-24.05Q89.3-20.2 87.85-17.55 86.4-14.9 83.55-13.85L83.55-13.85 89.65 0 81.9 0 76.5-13.2 71.75-13.2ZM71.75-19.15L78.8-19.15Q80.25-19.15 81.07-19.88 81.9-20.6 81.9-22.4L81.9-22.4 81.9-25.4Q81.9-27.2 81.07-27.93 80.25-28.65 78.8-28.65L78.8-28.65 71.75-28.65 71.75-19.15ZM113.19 0L104.39-18.7 102.19-24.25 101.39-24.25 101.79-18.4 101.79 0 95.09 0 95.09-34.9 102.89-34.9 111.69-16.2 113.89-10.65 114.69-10.65 114.29-16.5 114.29-34.9 120.99-34.9 120.99 0 113.19 0ZM149.39 0L127.79 0 127.79-34.9 149.39-34.9 149.39-28.65 134.94-28.65 134.94-20.75 147.19-20.75 147.19-14.55 134.94-14.55 134.94-6.25 149.39-6.25 149.39 0ZM162.39-13.2L162.39 0 155.24 0 155.24-34.9 170.34-34.9Q175.04-34.9 177.49-31.95 179.94-29 179.94-24.05L179.94-24.05Q179.94-20.2 178.49-17.55 177.04-14.9 174.19-13.85L174.19-13.85 180.29 0 172.54 0 167.14-13.2 162.39-13.2ZM162.39-19.15L169.44-19.15Q170.89-19.15 171.71-19.88 172.54-20.6 172.54-22.4L172.54-22.4 172.54-25.4Q172.54-27.2 171.71-27.93 170.89-28.65 169.44-28.65L169.44-28.65 162.39-28.65 162.39-19.15Z" opacity="1" transform="matrix(1,0,0,1,0,0)" fill="#001f3f" class="wordmark-text-0" data-fill-palette-color="primary" id="text-0"></path></svg></g></svg></g></svg></g></svg></g></svg></g></svg></g></svg></g><path d="M190.828 92.827L190.828 32.219 8.067 32.219 8.067 214.981 190.828 214.981 190.828 154.373 186.36 154.373 186.36 210.513 12.535 210.513 12.535 36.687 186.36 36.687 186.36 92.827Z" fill="#001f3f" stroke="transparent" data-fill-palette-color="primary"></path></svg></g><defs></defs></svg><rect width="395.52" height="247.2" fill="none" stroke="none" visibility="hidden"></rect></g></svg></g></svg>